<mxfile host="app.diagrams.net" modified="2024-04-16T14:45:16.359Z" agent="Mozilla/5.0 (Windows NT 10.0; Win64; x64) AppleWebKit/537.36 (KHTML, like Gecko) Chrome/123.0.0.0 Safari/537.36" etag="3gUsK2I2m5lDukE_NLsf" version="24.2.1" type="device">
  <diagram name="Page-1" id="lSGMDel060mrhGk9X5ky">
    <mxGraphModel dx="1434" dy="746" grid="1" gridSize="10" guides="1" tooltips="1" connect="1" arrows="1" fold="1" page="1" pageScale="1" pageWidth="827" pageHeight="1169" math="0" shadow="0">
      <root>
        <mxCell id="0" />
        <mxCell id="1" parent="0" />
        <mxCell id="gNDivGa9tHWg0lS5sGms-2" value="ligne de commande&lt;br style=&quot;border-color: var(--border-color);&quot;&gt;date_de commande" style="ellipse;whiteSpace=wrap;html=1;sketch=1;hachureGap=4;jiggle=2;curveFitting=1;fontFamily=Architects Daughter;fontSource=https%3A%2F%2Ffonts.googleapis.com%2Fcss%3Ffamily%3DArchitects%2BDaughter;fontSize=20;" parent="1" vertex="1">
          <mxGeometry x="410" y="93.5" width="220" height="123" as="geometry" />
        </mxCell>
        <mxCell id="gNDivGa9tHWg0lS5sGms-5" value="Passer commande" style="ellipse;whiteSpace=wrap;html=1;aspect=fixed;sketch=1;hachureGap=4;jiggle=2;curveFitting=1;fontFamily=Architects Daughter;fontSource=https%3A%2F%2Ffonts.googleapis.com%2Fcss%3Ffamily%3DArchitects%2BDaughter;fontSize=20;" parent="1" vertex="1">
          <mxGeometry x="100" y="338" width="120" height="120" as="geometry" />
        </mxCell>
        <mxCell id="gNDivGa9tHWg0lS5sGms-8" value="article&amp;nbsp;&lt;br&gt;le nom du gateaux&lt;br&gt;photo&lt;br&gt;description&lt;br&gt;prix" style="whiteSpace=wrap;html=1;aspect=fixed;sketch=1;hachureGap=4;jiggle=2;curveFitting=1;fontFamily=Architects Daughter;fontSource=https%3A%2F%2Ffonts.googleapis.com%2Fcss%3Ffamily%3DArchitects%2BDaughter;fontSize=20;" parent="1" vertex="1">
          <mxGeometry x="780" y="53" width="210" height="210" as="geometry" />
        </mxCell>
        <mxCell id="gNDivGa9tHWg0lS5sGms-9" value="0,n" style="text;html=1;align=center;verticalAlign=middle;resizable=0;points=[];autosize=1;strokeColor=none;fillColor=none;fontSize=20;fontFamily=Architects Daughter;" parent="1" vertex="1">
          <mxGeometry x="690" y="113" width="50" height="40" as="geometry" />
        </mxCell>
        <mxCell id="gNDivGa9tHWg0lS5sGms-10" value="1,n" style="text;html=1;align=center;verticalAlign=middle;resizable=0;points=[];autosize=1;strokeColor=none;fillColor=none;fontSize=20;fontFamily=Architects Daughter;" parent="1" vertex="1">
          <mxGeometry x="340" y="103" width="40" height="40" as="geometry" />
        </mxCell>
        <mxCell id="gNDivGa9tHWg0lS5sGms-12" value="n de client&amp;nbsp;&lt;br&gt;nom &lt;br&gt;prenom&lt;br&gt;adresse&lt;br&gt;mot de passe&lt;br&gt;email" style="whiteSpace=wrap;html=1;aspect=fixed;sketch=1;hachureGap=4;jiggle=2;curveFitting=1;fontFamily=Architects Daughter;fontSource=https%3A%2F%2Ffonts.googleapis.com%2Fcss%3Ffamily%3DArchitects%2BDaughter;fontSize=20;" parent="1" vertex="1">
          <mxGeometry x="60" y="550" width="220" height="220" as="geometry" />
        </mxCell>
        <mxCell id="gNDivGa9tHWg0lS5sGms-13" value="1,1" style="text;html=1;align=center;verticalAlign=middle;resizable=0;points=[];autosize=1;strokeColor=none;fillColor=none;fontSize=20;fontFamily=Architects Daughter;" parent="1" vertex="1">
          <mxGeometry x="170" y="270" width="30" height="40" as="geometry" />
        </mxCell>
        <mxCell id="gNDivGa9tHWg0lS5sGms-14" value="o,n" style="text;html=1;align=center;verticalAlign=middle;resizable=0;points=[];autosize=1;strokeColor=none;fillColor=none;fontSize=20;fontFamily=Architects Daughter;" parent="1" vertex="1">
          <mxGeometry x="170" y="480" width="50" height="40" as="geometry" />
        </mxCell>
        <mxCell id="gNDivGa9tHWg0lS5sGms-15" value="detail&amp;nbsp;" style="text;html=1;align=center;verticalAlign=middle;resizable=0;points=[];autosize=1;strokeColor=none;fillColor=none;fontSize=20;fontFamily=Architects Daughter;" parent="1" vertex="1">
          <mxGeometry x="480" y="103" width="80" height="40" as="geometry" />
        </mxCell>
        <mxCell id="7TsIwmwxhWzD52rrkzcq-5" value="" style="endArrow=none;html=1;rounded=0;sketch=1;hachureGap=4;jiggle=2;curveFitting=1;fontFamily=Architects Daughter;fontSource=https%3A%2F%2Ffonts.googleapis.com%2Fcss%3Ffamily%3DArchitects%2BDaughter;fontSize=16;" parent="1" edge="1">
          <mxGeometry width="50" height="50" relative="1" as="geometry">
            <mxPoint x="260" y="158" as="sourcePoint" />
            <mxPoint x="400" y="160" as="targetPoint" />
          </mxGeometry>
        </mxCell>
        <mxCell id="7TsIwmwxhWzD52rrkzcq-6" value="" style="endArrow=none;html=1;rounded=0;sketch=1;hachureGap=4;jiggle=2;curveFitting=1;fontFamily=Architects Daughter;fontSource=https%3A%2F%2Ffonts.googleapis.com%2Fcss%3Ffamily%3DArchitects%2BDaughter;fontSize=16;entryX=0;entryY=0.5;entryDx=0;entryDy=0;" parent="1" target="gNDivGa9tHWg0lS5sGms-8" edge="1">
          <mxGeometry width="50" height="50" relative="1" as="geometry">
            <mxPoint x="630" y="163" as="sourcePoint" />
            <mxPoint x="680" y="113" as="targetPoint" />
          </mxGeometry>
        </mxCell>
        <mxCell id="7TsIwmwxhWzD52rrkzcq-7" value="" style="endArrow=none;html=1;rounded=0;sketch=1;hachureGap=4;jiggle=2;curveFitting=1;fontFamily=Architects Daughter;fontSource=https%3A%2F%2Ffonts.googleapis.com%2Fcss%3Ffamily%3DArchitects%2BDaughter;fontSize=16;exitX=0.5;exitY=0;exitDx=0;exitDy=0;" parent="1" source="gNDivGa9tHWg0lS5sGms-5" edge="1">
          <mxGeometry width="50" height="50" relative="1" as="geometry">
            <mxPoint x="110" y="290" as="sourcePoint" />
            <mxPoint x="160" y="240" as="targetPoint" />
          </mxGeometry>
        </mxCell>
        <mxCell id="7TsIwmwxhWzD52rrkzcq-8" value="" style="endArrow=none;html=1;rounded=0;sketch=1;hachureGap=4;jiggle=2;curveFitting=1;fontFamily=Architects Daughter;fontSource=https%3A%2F%2Ffonts.googleapis.com%2Fcss%3Ffamily%3DArchitects%2BDaughter;fontSize=16;exitX=0.473;exitY=-0.014;exitDx=0;exitDy=0;exitPerimeter=0;" parent="1" edge="1">
          <mxGeometry width="50" height="50" relative="1" as="geometry">
            <mxPoint x="157.02999999999994" y="550.0000000000001" as="sourcePoint" />
            <mxPoint x="162.97" y="461.08" as="targetPoint" />
          </mxGeometry>
        </mxCell>
        <mxCell id="7TsIwmwxhWzD52rrkzcq-9" value="" style="swimlane;startSize=0;sketch=1;hachureGap=4;jiggle=2;curveFitting=1;fontFamily=Architects Daughter;fontSource=https%3A%2F%2Ffonts.googleapis.com%2Fcss%3Ffamily%3DArchitects%2BDaughter;fontSize=20;" parent="1" vertex="1">
          <mxGeometry x="60" y="40" width="200" height="200" as="geometry" />
        </mxCell>
        <mxCell id="7TsIwmwxhWzD52rrkzcq-10" value="&lt;font face=&quot;Comic Sans MS&quot;&gt;Commande&lt;/font&gt;" style="text;html=1;align=center;verticalAlign=middle;resizable=0;points=[];autosize=1;strokeColor=none;fillColor=none;fontSize=20;fontFamily=Architects Daughter;" parent="7TsIwmwxhWzD52rrkzcq-9" vertex="1">
          <mxGeometry x="40" width="120" height="40" as="geometry" />
        </mxCell>
        <mxCell id="7TsIwmwxhWzD52rrkzcq-11" value="id_commande" style="text;html=1;align=center;verticalAlign=middle;resizable=0;points=[];autosize=1;strokeColor=none;fillColor=none;fontSize=20;fontFamily=Architects Daughter;" parent="7TsIwmwxhWzD52rrkzcq-9" vertex="1">
          <mxGeometry x="20" y="40" width="150" height="40" as="geometry" />
        </mxCell>
        <mxCell id="7TsIwmwxhWzD52rrkzcq-13" value="date commande" style="text;html=1;align=center;verticalAlign=middle;resizable=0;points=[];autosize=1;strokeColor=none;fillColor=none;fontSize=20;fontFamily=Architects Daughter;" parent="7TsIwmwxhWzD52rrkzcq-9" vertex="1">
          <mxGeometry x="15" y="110" width="170" height="40" as="geometry" />
        </mxCell>
        <mxCell id="7TsIwmwxhWzD52rrkzcq-12" value="nÂ° commande" style="text;html=1;align=center;verticalAlign=middle;resizable=0;points=[];autosize=1;strokeColor=none;fillColor=none;fontSize=20;fontFamily=Architects Daughter;" parent="7TsIwmwxhWzD52rrkzcq-9" vertex="1">
          <mxGeometry x="30" y="70" width="140" height="40" as="geometry" />
        </mxCell>
        <mxCell id="7TsIwmwxhWzD52rrkzcq-14" value="&lt;font face=&quot;Comic Sans MS&quot;&gt;Client&lt;/font&gt;" style="text;html=1;align=center;verticalAlign=middle;resizable=0;points=[];autosize=1;strokeColor=none;fillColor=none;fontSize=20;fontFamily=Architects Daughter;" parent="1" vertex="1">
          <mxGeometry x="125" y="550" width="80" height="40" as="geometry" />
        </mxCell>
        <mxCell id="7TsIwmwxhWzD52rrkzcq-15" value="&lt;font face=&quot;Comic Sans MS&quot;&gt;Article&lt;/font&gt;" style="text;html=1;align=center;verticalAlign=middle;resizable=0;points=[];autosize=1;strokeColor=none;fillColor=none;fontSize=20;fontFamily=Architects Daughter;" parent="1" vertex="1">
          <mxGeometry x="840" y="53.5" width="90" height="40" as="geometry" />
        </mxCell>
        <mxCell id="7TsIwmwxhWzD52rrkzcq-16" value="" style="endArrow=none;html=1;rounded=0;sketch=1;hachureGap=4;jiggle=2;curveFitting=1;fontFamily=Architects Daughter;fontSource=https%3A%2F%2Ffonts.googleapis.com%2Fcss%3Ffamily%3DArchitects%2BDaughter;fontSize=16;entryX=1;entryY=0.2;entryDx=0;entryDy=0;entryPerimeter=0;exitX=0;exitY=0.205;exitDx=0;exitDy=0;exitPerimeter=0;" parent="1" source="7TsIwmwxhWzD52rrkzcq-9" target="7TsIwmwxhWzD52rrkzcq-9" edge="1">
          <mxGeometry width="50" height="50" relative="1" as="geometry">
            <mxPoint x="140" y="110" as="sourcePoint" />
            <mxPoint x="190" y="60" as="targetPoint" />
          </mxGeometry>
        </mxCell>
        <mxCell id="7TsIwmwxhWzD52rrkzcq-17" value="" style="endArrow=none;html=1;rounded=0;sketch=1;hachureGap=4;jiggle=2;curveFitting=1;fontFamily=Architects Daughter;fontSource=https%3A%2F%2Ffonts.googleapis.com%2Fcss%3Ffamily%3DArchitects%2BDaughter;fontSize=16;entryX=0.995;entryY=0.19;entryDx=0;entryDy=0;entryPerimeter=0;exitX=-0.014;exitY=0.181;exitDx=0;exitDy=0;exitPerimeter=0;" parent="1" source="gNDivGa9tHWg0lS5sGms-8" target="gNDivGa9tHWg0lS5sGms-8" edge="1">
          <mxGeometry width="50" height="50" relative="1" as="geometry">
            <mxPoint x="900" y="120" as="sourcePoint" />
            <mxPoint x="950" y="70" as="targetPoint" />
          </mxGeometry>
        </mxCell>
        <mxCell id="7TsIwmwxhWzD52rrkzcq-18" value="" style="endArrow=none;html=1;rounded=0;sketch=1;hachureGap=4;jiggle=2;curveFitting=1;fontFamily=Architects Daughter;fontSource=https%3A%2F%2Ffonts.googleapis.com%2Fcss%3Ffamily%3DArchitects%2BDaughter;fontSize=16;exitX=0.014;exitY=0.164;exitDx=0;exitDy=0;exitPerimeter=0;entryX=0.991;entryY=0.186;entryDx=0;entryDy=0;entryPerimeter=0;" parent="1" source="gNDivGa9tHWg0lS5sGms-12" target="gNDivGa9tHWg0lS5sGms-12" edge="1">
          <mxGeometry width="50" height="50" relative="1" as="geometry">
            <mxPoint x="210" y="610" as="sourcePoint" />
            <mxPoint x="260" y="560" as="targetPoint" />
          </mxGeometry>
        </mxCell>
        <mxCell id="TVGNwLvtVS7QPymmqh1n-1" value="minimun" style="text;html=1;align=center;verticalAlign=middle;resizable=0;points=[];autosize=1;strokeColor=none;fillColor=none;fontSize=20;fontFamily=Architects Daughter;" parent="1" vertex="1">
          <mxGeometry x="270" y="50" width="90" height="40" as="geometry" />
        </mxCell>
        <mxCell id="TVGNwLvtVS7QPymmqh1n-2" value="maximun" style="text;html=1;align=center;verticalAlign=middle;resizable=0;points=[];autosize=1;strokeColor=none;fillColor=none;fontSize=20;fontFamily=Architects Daughter;" parent="1" vertex="1">
          <mxGeometry x="380" y="50" width="100" height="40" as="geometry" />
        </mxCell>
        <mxCell id="pELDrgR3qPPS9pyE_b0d-1" value="" style="endArrow=classic;html=1;rounded=0;entryX=0.311;entryY=0.95;entryDx=0;entryDy=0;entryPerimeter=0;exitX=0.25;exitY=0.675;exitDx=0;exitDy=0;exitPerimeter=0;" parent="1" source="gNDivGa9tHWg0lS5sGms-10" target="TVGNwLvtVS7QPymmqh1n-1" edge="1">
          <mxGeometry width="50" height="50" relative="1" as="geometry">
            <mxPoint x="340" y="120" as="sourcePoint" />
            <mxPoint x="860" y="410" as="targetPoint" />
            <Array as="points">
              <mxPoint x="300" y="80" />
            </Array>
          </mxGeometry>
        </mxCell>
        <mxCell id="pELDrgR3qPPS9pyE_b0d-2" value="" style="endArrow=classic;html=1;rounded=0;entryX=0.31;entryY=0.85;entryDx=0;entryDy=0;entryPerimeter=0;" parent="1" target="TVGNwLvtVS7QPymmqh1n-2" edge="1">
          <mxGeometry width="50" height="50" relative="1" as="geometry">
            <mxPoint x="370" y="120" as="sourcePoint" />
            <mxPoint x="308" y="98" as="targetPoint" />
          </mxGeometry>
        </mxCell>
        <mxCell id="pELDrgR3qPPS9pyE_b0d-3" value="&lt;font style=&quot;font-size: 24px;&quot;&gt;1- Une commande peut contenir au minimum un article et au maximum plusieurs articles&amp;nbsp;&lt;br&gt;2- Un article peut appartenir au minimum Ã  une commande et au maximum Ã  plusieurs commandes&lt;br&gt;3- Nous avons donc besoin d&#39;une table de jointure entre les deux table de commande et d&#39;article&lt;br&gt;4- La raison c&#39;est que en dÃ©finissant les cardinalitÃ©s on s&#39;apperÃ§oit que nous avons n et n pour &lt;br&gt;les maximums dans les cardinalitÃ©s&amp;nbsp;&lt;br&gt;&lt;/font&gt;" style="text;html=1;align=left;verticalAlign=middle;resizable=0;points=[];autosize=1;strokeColor=none;fillColor=none;" parent="1" vertex="1">
          <mxGeometry x="340" y="320" width="1080" height="160" as="geometry" />
        </mxCell>
        <mxCell id="pELDrgR3qPPS9pyE_b0d-4" value="&lt;font style=&quot;font-size: 24px;&quot;&gt;Parent&lt;/font&gt;" style="text;html=1;align=center;verticalAlign=middle;resizable=0;points=[];autosize=1;strokeColor=none;fillColor=none;" parent="1" vertex="1">
          <mxGeometry x="60" y="500" width="90" height="40" as="geometry" />
        </mxCell>
        <mxCell id="pELDrgR3qPPS9pyE_b0d-11" value="&lt;font style=&quot;font-size: 24px;&quot;&gt;Enfant&lt;/font&gt;" style="text;html=1;align=center;verticalAlign=middle;resizable=0;points=[];autosize=1;strokeColor=none;fillColor=none;" parent="1" vertex="1">
          <mxGeometry x="60" y="250" width="90" height="40" as="geometry" />
        </mxCell>
        <mxCell id="V4QUXz4G8raBZ9gq7s0O-1" value="&lt;b&gt;5- une commande peux avoir au minimum un client et au maximum un clients&lt;/b&gt;" style="text;html=1;align=center;verticalAlign=middle;resizable=0;points=[];autosize=1;strokeColor=none;fillColor=none;fontSize=20;fontFamily=Architects Daughter;" parent="1" vertex="1">
          <mxGeometry x="355" y="470" width="720" height="40" as="geometry" />
        </mxCell>
        <mxCell id="V4QUXz4G8raBZ9gq7s0O-2" value="&lt;b&gt;1- clients peux avoir zero commande et au maximum plusieurs commande&lt;/b&gt;" style="text;html=1;align=center;verticalAlign=middle;resizable=0;points=[];autosize=1;strokeColor=none;fillColor=none;fontSize=20;fontFamily=Architects Daughter;" parent="1" vertex="1">
          <mxGeometry x="360" y="500" width="690" height="40" as="geometry" />
        </mxCell>
      </root>
    </mxGraphModel>
  </diagram>
</mxfile>
